<?xml version="1.0" encoding="utf-8"?>
<!-- Generator: Adobe Illustrator 19.2.1, SVG Export Plug-In . SVG Version: 6.00 Build 0)  -->
<svg version="1.1" id="Layer_1" xmlns="http://www.w3.org/2000/svg" xmlns:xlink="http://www.w3.org/1999/xlink" x="0px" y="0px"
	 viewBox="0 0 276 73.7" style="enable-background:new 0 0 276 73.7;" xml:space="preserve">
<style type="text/css">
	.st0{fill:#333333;}
	.st1{fill:#A3DD5F;}
	.st2{fill:#5C9E5C;}
	.st3{fill:#3B755C;}
	.st4{fill:#195359;}
	.st5{fill:#84C95F;}
</style>
<g>
	<path class="st0" d="M107.4,29.3h-4.7v-3.4h8.8v12.1c-1.8,0.6-5.1,0.9-7.6,0.9c-6.8,0-10.1-2.6-10.1-11.4c0-8.8,3.7-11.1,10.7-11.1
		c1.9,0,4.8,0.3,6.5,0.8l-0.8,3.5c-1.1-0.4-3.9-0.6-5.3-0.6c-4.9,0-6.6,0.8-6.6,7.4c0,6.6,1.8,7.6,6.4,7.6c1,0,2.1-0.2,2.8-0.3V29.3
		z"/>
	<path class="st0" d="M127.6,38c-1.6,0.5-3.9,0.9-5.5,0.9c-4.5,0-7.6-1.9-7.6-8.4c0-6.3,2.7-8.2,7.3-8.2c5,0,7.1,1.7,6.8,9.3h-10.1
		c0,3.4,1.3,4,4.1,4c1.1,0,3.2-0.3,4.4-0.6L127.6,38z M118.5,28.7h6.6c-0.1-2.8-0.9-3.4-3.1-3.4C119.6,25.3,118.8,26.1,118.5,28.7z"
		/>
	<path class="st0" d="M130.9,30.5c0-6.4,2.5-8.2,7.5-8.2c5,0,7.5,1.8,7.5,8.2c0,6.4-2.5,8.4-7.5,8.4
		C133.3,38.9,130.9,36.9,130.9,30.5z M134.8,30.6c0,4.3,0.8,5.2,3.5,5.2c2.7,0,3.6-0.9,3.6-5.2c0-4.5-0.8-5.2-3.6-5.2
		C135.7,25.4,134.8,26.1,134.8,30.6z"/>
	<path class="st0" d="M162.6,20.9c-1.2-0.4-3.5-0.8-5.7-0.8c-3.4,0-4.8,0.7-4.8,2.8c0,1.6,0.8,2.4,4.7,2.7c5,0.5,7.2,2.4,7.2,6.4
		c0,5.1-3.1,6.8-9.3,6.8c-2.4,0-5-0.4-6.7-1l0.9-3.5c1.4,0.4,3.6,0.8,5.7,0.8c3.4,0,5-0.6,5-2.8c0-1.6-0.8-2.6-4.9-3
		c-4.7-0.5-7-1.9-7-5.9c0-5.1,3.1-7,9.2-7c2.3,0,4.9,0.4,6.6,1L162.6,20.9z"/>
	<path class="st0" d="M166.3,30.5c0-6.4,2.5-8.2,7.5-8.2c5,0,7.5,1.8,7.5,8.2c0,6.4-2.5,8.4-7.5,8.4
		C168.8,38.9,166.3,36.9,166.3,30.5z M170.2,30.6c0,4.3,0.8,5.2,3.5,5.2c2.7,0,3.6-0.9,3.6-5.2c0-4.5-0.8-5.2-3.6-5.2
		C171.1,25.4,170.2,26.1,170.2,30.6z"/>
	<path class="st0" d="M188,34c0,1.5,0.3,2.6,1.2,3.7l-3.4,1.4c-1.1-1.2-1.7-2.7-1.7-5v-18h3.8V34z"/>
</g>
<g>
	<path class="st0" d="M201.3,22.7h3.8v14.8c-1.9,0.7-4.9,1.4-7.4,1.4c-4.4,0-6.4-1.8-6.4-7.4v-8.8h3.8v8.4c0,3.5,0.6,4.3,3.3,4.3
		c1,0,1.9-0.1,2.8-0.4V22.7z"/>
</g>
<g>
	<path class="st0" d="M214.2,26.1v6.8c0,1.9,0.5,2.7,2.4,2.7c1,0,1.9-0.2,2.7-0.4l0.7,3c-1.1,0.4-2.8,0.7-4.3,0.7
		c-3.5,0-5.2-1-5.2-5.7v-7.1h-2.6v-3.3h2.6v-2.7l3.8-1.6v4.2h5.2v3.3H214.2z"/>
</g>
<g>
	<path class="st0" d="M226.7,18.1c0,1.8-0.5,2.1-2.2,2.1c-1.7,0-2.2-0.3-2.2-2.1c0-1.6,0.5-1.9,2.2-1.9
		C226.2,16.2,226.7,16.4,226.7,18.1z M226.4,38.4h-3.8V22.7h3.8V38.4z"/>
	<path class="st0" d="M229.2,30.5c0-6.4,2.5-8.2,7.5-8.2c5,0,7.5,1.8,7.5,8.2c0,6.4-2.5,8.4-7.5,8.4
		C231.7,38.9,229.2,36.9,229.2,30.5z M233.2,30.6c0,4.3,0.8,5.2,3.5,5.2c2.7,0,3.6-0.9,3.6-5.2c0-4.5-0.8-5.2-3.6-5.2
		C234,25.4,233.2,26.1,233.2,30.6z"/>
	<path class="st0" d="M250.9,38.4h-3.8V23.6c1.9-0.7,4.9-1.4,7.4-1.4c4.4,0,6.4,1.8,6.4,7.4v8.8h-3.8v-8.4c0-3.5-0.6-4.3-3.4-4.3
		c-1,0-1.9,0.1-2.8,0.4V38.4z"/>
	<path class="st0" d="M274.7,26.1c-1.2-0.4-3-0.7-4.6-0.7c-1.9,0-2.8,0.2-2.8,1.8c0,1.1,0.7,1.4,3.2,1.7c3.8,0.4,5.5,1.6,5.5,4.7
		c0,4.1-2.7,5.2-6.7,5.2c-1.7,0-4.1-0.3-5.6-0.8l0.8-3c1.1,0.4,3.1,0.7,4.7,0.7c2.1,0,3.1-0.3,3.1-1.9c0-1.1-0.6-1.6-3.4-1.9
		c-3.5-0.3-5.3-1.2-5.3-4.5c0-4.1,2.7-5.2,6.7-5.2c1.6,0,3.7,0.3,5.3,0.9L274.7,26.1z"/>
</g>
<g>
	<path class="st0" d="M106.6,55.4c0-1.6-0.3-2.1-2.1-2.1c-0.5,0-1.7,0.2-2.3,0.4c0.1,0.4,0.2,1,0.2,1.7v5.5h-1.7v-5.4
		c0-1.6-0.3-2.1-2.1-2.1c-0.6,0-1.6,0.1-2.1,0.3v7.3h-1.7V52h1.3l0.1,0.4c0.8-0.4,1.8-0.5,2.4-0.5c1.4,0,2.3,0.2,2.9,0.8l0.5-0.3
		c0.8-0.4,1.8-0.5,2.4-0.5c2.7,0,3.7,0.8,3.7,3.5v5.5h-1.7V55.4z"/>
	<path class="st0" d="M111.3,50.5c-0.6,0-1-0.2-1-1v-0.1c0-0.8,0.3-0.9,1-0.9c0.6,0,1,0.2,1,0.9v0.1
		C112.3,50.3,111.9,50.5,111.3,50.5z M110.5,52h1.7v8.8h-1.7V52z"/>
	<path class="st0" d="M120.2,55.4c0-1.6-0.3-2.1-2.1-2.1c-0.6,0-1.6,0.1-2.1,0.3v7.3h-1.7V52h1.3l0.1,0.4c0.8-0.4,1.8-0.5,2.4-0.5
		c2.7,0,3.7,0.8,3.7,3.5v5.5h-1.7V55.4z"/>
	<path class="st0" d="M124.9,50.5c-0.6,0-1-0.2-1-1v-0.1c0-0.8,0.3-0.9,1-0.9c0.6,0,1,0.2,1,0.9v0.1
		C125.9,50.3,125.5,50.5,124.9,50.5z M124.1,52h1.7v8.8h-1.7V52z"/>
	<path class="st0" d="M133.8,55.4c0-1.6-0.3-2.1-2.1-2.1c-0.6,0-1.6,0.1-2.1,0.3v7.3H128V52h1.3l0.1,0.4c0.8-0.4,1.8-0.5,2.4-0.5
		c2.7,0,3.7,0.8,3.7,3.5v5.5h-1.7V55.4z"/>
	<path class="st0" d="M141.4,61c-2.6,0-3.9-0.9-3.9-3.6v-2c0-2.9,1.6-3.6,3.9-3.6c0.3,0,1.7,0.2,2.4,0.5L144,52h1.3v8
		c0,1.7,0,3.4-2.7,4.1c-1.6,0.4-3.4,0.3-4.5,0.3v-1.4c1.4,0,2.9,0,4.1-0.3c1.2-0.3,1.4-1.1,1.5-2.1C143.1,60.9,142.5,61,141.4,61z
		 M139.1,55.4v2c0,1.7,0.7,2.1,2.2,2.1c0.9,0,1.7-0.1,2.2-0.2v-5.8c-0.5-0.2-1.7-0.3-2.2-0.3C139.6,53.3,139.1,53.9,139.1,55.4z"/>
	<path class="st0" d="M155.6,53.3c-1.3,0-2.5,0.2-2.5,2v2.2c0.1,1.9,1.2,2,2.5,2c0.9,0,1.9-0.1,2.5-0.3c0,0,0,1.4,0,1.4
		c-0.6,0.1-1.7,0.3-2.8,0.3c-3.8,0-3.9-2.2-3.9-3.4v-2.2c0-1.2,0.1-3.4,3.9-3.4c1.1,0,2.2,0.2,2.8,0.3c0,0,0,1.4,0,1.4
		C157.6,53.4,156.5,53.3,155.6,53.3z"/>
	<path class="st0" d="M167.9,57.5c0,1.3-0.1,3.6-4.1,3.6s-4.1-2.3-4.1-3.6v-2c0-1.3,0.1-3.6,4.1-3.6s4.1,2.3,4.1,3.6V57.5z
		 M166.2,55.4c-0.1-1.8-0.9-2.1-2.4-2.1c-1.7,0-2.4,0.5-2.4,2.1v2c0,1.8,1,2.1,2.4,2.1c1.7,0,2.4-0.4,2.4-2.1V55.4z"/>
	<path class="st0" d="M175.8,55.4c0-1.6-0.3-2.1-2.1-2.1c-0.6,0-1.6,0.1-2.1,0.3v7.3H170V52h1.3l0.1,0.4c0.8-0.4,1.8-0.5,2.4-0.5
		c2.7,0,3.7,0.8,3.7,3.5v5.5h-1.7V55.4z"/>
	<path class="st0" d="M179.3,59.1c0.9,0.4,2,0.5,2.7,0.5c1.3,0,2-0.2,2-1.1c0-0.6-0.5-0.9-1.1-1.2l-1.7-0.8
		c-1.3-0.6-1.8-1.2-1.8-2.4c0-1.5,1.1-2.2,3.6-2.2c0.4,0,1.5,0.1,2.2,0.3v1.4c-0.6-0.2-1.9-0.3-2.2-0.3c-1.4,0-2,0.3-2,0.9
		c0,0.6,0.3,0.7,0.8,1l1.8,0.9c1.2,0.6,1.9,1.3,1.9,2.5c0,1.8-1.3,2.4-3.7,2.4c-0.8,0-1.8-0.2-2.7-0.5V59.1z"/>
	<path class="st0" d="M189.2,57.5c0,1.6,0.3,2.1,2.1,2.1c0.6,0,1.6-0.1,2.1-0.3V52h1.7v8.8h-1.3l-0.1-0.4c-0.8,0.4-1.8,0.5-2.4,0.5
		c-2.7,0-3.7-0.8-3.7-3.5V52h1.7V57.5z"/>
	<path class="st0" d="M197.4,48.6h1.7v12.3h-1.7V48.6z"/>
	<path class="st0" d="M206.3,60.9c-0.4,0.1-1,0.1-1.4,0.1c-2.6,0-2.8-1.8-2.8-2.6v-5.1h-1.4V52h1.4l0.3-2.4h1.3V52h2.6v1.3h-2.6v5.1
		c0,0.6,0.2,1.3,1.5,1.3c0.3,0,0.7,0,1.1-0.1V60.9z"/>
	<path class="st0" d="M207.7,55.4c0-1.3,0.1-3.6,3.9-3.6c1.4,0,2.4,0.1,3.6,0.5v8.5H214l-0.1-0.4c-0.8,0.4-1.9,0.5-2.2,0.5
		c-3.8,0-3.9-2.2-3.9-3.6V55.4z M209.4,57.5c0,1.6,0.4,2.1,2.2,2.1c0.6,0,1.5-0.1,2-0.3v-5.8c-0.6-0.1-1.5-0.2-2-0.2
		c-1.8,0-2.2,0.6-2.2,2.1V57.5z"/>
	<path class="st0" d="M223.4,55.4c0-1.6-0.3-2.1-2.1-2.1c-0.6,0-1.6,0.1-2.1,0.3v7.3h-1.7V52h1.3l0.1,0.4c0.8-0.4,1.8-0.5,2.4-0.5
		c2.7,0,3.7,0.8,3.7,3.5v5.5h-1.7V55.4z"/>
	<path class="st0" d="M232.3,60.9c-0.4,0.1-1,0.1-1.4,0.1c-2.6,0-2.8-1.8-2.8-2.6v-5.1h-1.4V52h1.4l0.3-2.4h1.3V52h2.6v1.3h-2.6v5.1
		c0,0.6,0.2,1.3,1.5,1.3c0.3,0,0.7,0,1.1-0.1V60.9z"/>
	<path class="st0" d="M233.8,59.1c0.9,0.4,2,0.5,2.7,0.5c1.3,0,2-0.2,2-1.1c0-0.6-0.5-0.9-1.1-1.2l-1.7-0.8
		c-1.3-0.6-1.8-1.2-1.8-2.4c0-1.5,1.1-2.2,3.6-2.2c0.4,0,1.5,0.1,2.2,0.3v1.4c-0.6-0.2-1.9-0.3-2.2-0.3c-1.4,0-2,0.3-2,0.9
		c0,0.6,0.3,0.7,0.8,1l1.8,0.9c1.2,0.6,1.9,1.3,1.9,2.5c0,1.8-1.3,2.4-3.7,2.4c-0.8,0-1.8-0.2-2.7-0.5V59.1z"/>
</g>
<rect x="0" class="st1" width="73.7" height="73.7"/>
<polygon class="st2" points="0,34 36.8,11.5 36.8,31.4 0,53.8 "/>
<polygon class="st3" points="0,53.8 36.8,31.4 36.8,51.2 0,73.7 "/>
<polygon class="st4" points="0,73.7 36.8,51.2 36.8,73.7 "/>
<polygon class="st5" points="73.7,34 36.8,11.5 36.8,31.4 73.7,53.8 "/>
<polygon class="st2" points="73.7,53.8 36.8,31.4 36.8,51.2 73.7,73.7 "/>
<polygon class="st3" points="73.7,73.7 36.8,51.2 36.8,73.7 "/>
</svg>
